REM DIRINDEX 1\2,1\3,1\4
REM DIRNAME cjc112,folder01,folder02,folder03
TITLE ""
FILE "Track09.mp3" MP3
  TRACK 01 AUDIO
    TITLE "2:cjc112_049"
    INDEX 01 00:00:00
  TRACK 02 AUDIO
    TITLE "0:"
    INDEX 01 00:01:22
  TRACK 03 AUDIO
    TITLE "3:cjc112_050"
    INDEX 01 00:01:64
  TRACK 04 AUDIO
    TITLE "0:"
    INDEX 01 00:05:12
  TRACK 05 AUDIO
    TITLE "4:cjc112_051"
    INDEX 01 00:08:58
  TRACK 06 AUDIO
    TITLE "0:"
    INDEX 01 00:12:01
